<?xml version="1.0" standalone="no"?>
<!DOCTYPE svg PUBLIC "-//W3C//DTD SVG 20010904//EN"
 "http://www.w3.org/TR/2001/REC-SVG-20010904/DTD/svg10.dtd">
<svg version="1.0" xmlns="http://www.w3.org/2000/svg"
 width="700.000000pt" height="700.000000pt" viewBox="0 0 700.000000 700.000000"
 preserveAspectRatio="xMidYMid meet">
<metadata>
Created by potrace 1.14, written by Peter Selinger 2001-2017
</metadata>
<g transform="translate(0.000000,700.000000) scale(0.100000,-0.100000)"
fill="#000000" stroke="none">
<path d="M4925 6942 c-111 -38 -223 -125 -244 -190 -8 -23 -40 -67 -79 -108
-36 -38 -85 -96 -110 -129 -24 -33 -45 -62 -47 -64 -2 -2 -10 3 -18 10 -18 18
-170 157 -264 240 -253 226 -515 251 -653 61 -78 -108 -92 -301 -34 -482 35
-108 93 -200 563 -888 55 -80 91 -143 91 -158 0 -21 -13 -9 -76 68 -114 138
-289 307 -364 351 -204 119 -452 102 -650 -45 -89 -66 -200 -200 -200 -242 0
-8 -4 -17 -9 -21 -5 -3 -12 -19 -16 -35 -8 -35 -5 -34 -68 -15 -208 63 -451
-23 -550 -195 -59 -103 -72 -273 -31 -393 9 -26 14 -50 11 -53 -3 -3 -48 1
-101 9 -103 15 -190 14 -271 -4 -174 -39 -310 -197 -330 -382 -6 -53 -21 -180
-31 -252 -3 -22 -10 -62 -15 -90 -5 -27 -12 -66 -15 -85 -3 -19 -10 -55 -16
-80 -5 -25 -12 -58 -15 -73 -2 -15 -25 -99 -50 -185 -58 -200 -70 -286 -71
-497 -1 -253 32 -496 104 -765 14 -52 27 -102 29 -110 2 -8 19 -67 38 -130
106 -344 144 -433 305 -710 254 -435 573 -830 912 -1129 l91 -80 51 60 50 60
-44 37 c-52 44 -200 183 -246 232 -114 119 -144 152 -196 215 -32 39 -68 81
-80 95 -143 169 -372 519 -510 782 -94 179 -239 622 -291 893 -77 397 -81 714
-11 935 37 116 86 323 113 473 l18 97 41 -38 c115 -109 310 -399 509 -759 47
-85 81 -132 121 -170 148 -139 308 -205 477 -198 178 7 300 92 357 248 10 29
18 29 63 -5 17 -13 17 -17 -12 -90 -34 -85 -78 -239 -87 -308 -3 -25 -8 -47
-9 -50 -6 -10 -18 -203 -18 -295 -1 -101 11 -287 19 -322 6 -23 17 -24 122 -7
l34 5 -8 72 c-10 93 -11 382 -1 471 15 138 54 288 106 408 l20 46 63 0 c132 0
240 71 300 197 31 66 33 76 33 186 l0 116 30 -7 c70 -15 168 1 249 40 171 83
253 248 223 450 -3 25 -9 74 -12 110 -3 36 -8 83 -10 105 -3 22 -7 63 -10 90
-3 28 -7 61 -10 75 -18 100 -16 135 9 191 61 133 80 269 91 654 5 200 13 367
20 425 2 19 7 60 10 90 19 178 42 254 137 445 44 90 81 148 65 104 -3 -9 -8
-36 -12 -60 -4 -24 -7 -48 -8 -53 -1 -5 6 -10 16 -12 47 -7 51 -13 22 -38
l-28 -24 70 -70 c49 -49 92 -80 147 -108 72 -35 84 -38 167 -38 l89 0 -5 -25
c-18 -95 -23 -294 -11 -401 14 -126 34 -198 115 -408 93 -242 139 -404 157
-561 3 -30 7 -63 10 -74 11 -57 18 -215 18 -409 1 -167 4 -218 14 -218 53 0
58 -10 56 -112 -1 -85 -9 -200 -19 -288 -2 -19 -6 -64 -9 -100 -3 -36 -8 -87
-10 -115 -3 -27 -10 -106 -16 -175 -13 -147 -18 -200 -35 -365 -2 -22 -7 -65
-10 -95 -3 -30 -10 -91 -15 -135 -5 -44 -12 -109 -15 -145 -3 -36 -8 -76 -10
-90 -2 -14 -6 -50 -10 -80 -4 -30 -8 -68 -11 -85 -2 -16 -6 -51 -9 -76 -5 -51
-49 -353 -61 -419 -27 -159 -38 -214 -60 -297 -35 -133 -42 -184 -38 -281 8
-195 71 -401 206 -679 27 -56 53 -105 59 -108 5 -4 38 10 73 29 l63 36 -53
107 c-117 236 -181 440 -191 608 -5 90 -2 113 25 220 26 102 45 191 66 315 2
14 7 41 10 60 11 64 16 95 26 175 11 80 13 96 24 170 4 22 9 60 11 85 3 25 7
61 10 80 2 19 7 53 9 75 3 22 8 63 11 90 3 28 7 66 10 85 2 19 7 62 10 95 6
71 12 130 25 240 5 44 12 114 15 155 4 41 8 86 10 100 2 14 7 62 10 108 4 46
8 96 10 110 2 15 6 65 10 112 7 88 8 97 22 240 15 153 7 858 -12 1130 -9 134
-16 219 -20 248 -27 207 -42 274 -102 457 -45 138 -89 240 -163 383 -69 131
-69 139 -15 312 68 212 107 377 119 497 3 29 13 83 22 119 20 78 12 129 -37
231 -74 154 -200 215 -344 165z m-1065 -229 c57 -21 161 -90 225 -149 115
-107 231 -213 252 -230 l23 -19 -50 -103 c-64 -131 -101 -218 -111 -262 -15
-62 -34 -180 -44 -275 -3 -27 -8 -73 -11 -101 l-6 -51 -146 216 c-80 119 -184
272 -231 341 -46 69 -97 155 -113 191 -60 144 -69 281 -23 375 43 88 120 110
235 67z m1230 -38 c34 -31 52 -164 31 -231 -5 -16 -19 -63 -31 -104 -13 -41
-43 -130 -67 -197 -40 -111 -47 -123 -75 -132 -77 -27 -159 -1 -249 78 l-47
41 14 63 c26 125 70 278 109 373 36 91 252 166 315 109z m-1517 -1138 c90 -44
200 -145 334 -305 54 -64 100 -119 103 -122 3 -3 29 -35 59 -73 l53 -67 -7
-84 c-12 -158 -27 -214 -60 -221 -14 -3 -37 -7 -51 -10 -18 -4 -24 -11 -20
-23 5 -19 9 -42 36 -232 18 -127 22 -167 36 -315 3 -33 8 -71 10 -85 28 -164
-4 -272 -99 -334 -93 -60 -220 -57 -290 7 -27 25 -108 177 -362 682 -192 384
-334 677 -344 716 -20 72 -20 162 0 213 18 45 67 114 108 153 61 57 111 87
195 115 115 39 199 34 299 -15z m1651 -437 c9 -30 12 -50 7 -45 -12 12 -91
246 -90 266 0 16 58 -137 83 -221z m-2484 32 c56 -24 64 -34 79 -102 7 -35
136 -302 360 -750 197 -393 358 -725 370 -765 84 -280 -56 -457 -276 -349 -97
47 -161 131 -342 450 -91 159 -245 429 -342 601 -98 171 -193 342 -212 380
-144 288 -89 497 148 557 42 10 171 -2 215 -22z m-592 -642 c130 -33 122 -25
207 -177 43 -76 86 -151 95 -168 9 -16 116 -203 236 -415 273 -478 267 -465
268 -560 1 -85 -16 -122 -75 -166 -60 -44 -132 -56 -231 -38 -73 14 -128 39
-201 90 -87 62 -106 86 -188 233 -135 240 -269 453 -387 611 -42 56 -144 163
-182 190 l-28 20 -27 -46 c-15 -25 -28 -44 -30 -42 -2 2 0 33 5 68 5 36 12 97
15 135 7 87 53 184 107 228 64 51 129 68 239 63 53 -3 132 -14 177 -26z"/>
</g>
</svg>
